<svg xmlns="http://www.w3.org/2000/svg" enable-background="new 0 0 512 512" version="1" viewBox="0 0 512 512" id="adobe-spark-post"><path fill="#FFDE00" d="M93.867,12.8h326.016C470.547,12.8,512,54.253,512,104.918v314.965C512,470.547,470.547,512,419.883,512
			H92.118C41.453,512,0,470.547,0,419.882V106.667C0,54.933,42.134,12.8,93.867,12.8"></path><path fill="#262000" d="M98.133,34.133h317.482c41.45,0,75.051,33.601,75.051,75.051v306.431c0,41.45-33.602,75.051-75.051,75.051
			H96.384c-41.45,0-75.051-33.601-75.051-75.051V110.933C21.333,68.267,55.466,34.133,98.133,34.133"></path><path fill="#E8E1B3" d="M295.954,383.268c-0.444,0-0.887-0.102-1.298-0.303l-157.533-76.992
				c-1.467-0.718-2.078-2.495-1.361-3.962l77.62-158.816c0.348-0.711,0.951-1.244,1.7-1.501c0.748-0.256,1.552-0.207,2.263,0.141
				l157.533,76.992c1.468,0.717,2.078,2.495,1.36,3.963l-77.619,158.814c-0.348,0.711-0.95,1.244-1.698,1.501
				C296.604,383.213,296.278,383.268,295.954,383.268z M139.812,302.834l155.668,76.081l76.709-156.951L216.52,145.884
				L139.812,302.834z"></path><path fill="#FEDD00" d="M176.527,182.927v158.945h158.945V182.927H176.527z M296.527,304.651h-82.06v-82.059h82.06V304.651z"></path><path fill="#E8E1B3" d="M214.839,382.851c-0.333,0-0.668-0.057-0.992-0.171c-0.747-0.265-1.345-0.805-1.686-1.52l-75.986-159.602
				c-0.34-0.714-0.382-1.519-0.117-2.264c0.264-0.746,0.804-1.344,1.518-1.684l158.313-75.374c1.473-0.7,3.246-0.074,3.948,1.401
				l75.987,159.603c0.341,0.714,0.382,1.519,0.116,2.265c-0.265,0.745-0.805,1.343-1.519,1.683l-158.312,75.373
				C215.707,382.754,215.273,382.851,214.839,382.851z M140.233,220.776l75.095,157.728l156.44-74.481l-75.096-157.729
				L140.233,220.776z"></path></svg>