<svg xmlns="http://www.w3.org/2000/svg" enable-background="new 0 0 512 512" version="1" viewBox="0 0 512 512" id="adobe-premiere-elements"><path fill="#DC7FFE" d="M93.629,12.8h326.016c50.665,0,92.118,41.453,92.118,92.118v314.965c0,50.665-41.453,92.118-92.118,92.118
			H91.88c-50.665,0-92.118-41.453-92.118-92.118V106.667C-0.238,54.934,41.895,12.8,93.629,12.8"></path><path fill="#381D40" d="M97.894,34.134h317.482c41.45,0,75.051,33.601,75.051,75.051v306.431c0,41.45-33.602,75.051-75.051,75.051
			H96.145c-41.45,0-75.051-33.601-75.051-75.051V110.934C21.094,68.267,55.228,34.134,97.894,34.134"></path><circle cx="252.669" cy="265.616" r="64.592" fill="#DC7FFE"></circle><path fill="#381D40" d="M231.184,230.426l60.038,32.359c2.268,1.222,2.284,4.469,0.029,5.714l-60.038,33.149
			c-2.169,1.198-4.828-0.371-4.828-2.849v-65.508C226.385,230.828,229.016,229.257,231.184,230.426z"></path><path fill="#F2CBFE" d="M253.594,422.927c-4.711-1.132-9.053-3.477-12.646-6.888L104.157,286.163
				c-11.196-10.631-11.657-28.389-1.026-39.585l129.876-136.791c5.131-5.405,12.085-8.488,19.581-8.683
				c7.494-0.194,14.6,2.524,20.004,7.656l136.792,129.876c5.405,5.131,8.488,12.085,8.682,19.58
				c0.194,7.496-2.525,14.6-7.656,20.004L280.533,415.013c-5.132,5.405-12.086,8.488-19.581,8.682
				C258.439,423.761,255.969,423.498,253.594,422.927z M258.018,109.632c-6.726-1.617-14.114,0.297-19.209,5.664L108.932,252.087
				c-7.593,7.998-7.264,20.682,0.733,28.275l136.791,129.876c3.855,3.659,8.927,5.602,14.289,5.46
				c5.359-0.138,10.326-2.338,13.987-6.193l129.876-136.792c3.66-3.855,5.599-8.929,5.46-14.289
				c-0.138-5.359-2.338-10.326-6.193-13.986L267.083,114.563C264.452,112.065,261.314,110.425,258.018,109.632z"></path></svg>