<svg xmlns="http://www.w3.org/2000/svg" enable-background="new 0 0 512 512" version="1" viewBox="0 0 512 512" id="adobe-illustrator-draw"><path fill="#FF7C00" d="M93.867,12.8h326.016C470.547,12.8,512,54.253,512,104.918v314.965C512,470.547,470.547,512,419.883,512
			H92.118C41.453,512,0,470.547,0,419.882V106.667C0,54.933,42.134,12.8,93.867,12.8"></path><path fill="#1C0A00" d="M98.133,34.133h317.482c41.45,0,75.051,33.601,75.051,75.051v306.431c0,41.45-33.602,75.051-75.051,75.051
			H96.384c-41.45,0-75.051-33.601-75.051-75.051V110.933C21.333,68.267,55.466,34.133,98.133,34.133"></path><path fill="#FEE4CA" d="M142.073,166.613c37.682,63.328,79.132,134.871,117.254,197.97c-0.587-1.005-2.206-0.978-2.742,0.067
			c36.865-63.879,75.33-131.338,110.793-195.794c0,0,7.058-12.931,7.058-12.931c0.56-1.025,1.844-1.403,2.87-0.843
			c1.041,0.566,1.412,1.886,0.819,2.912l-7.354,12.765c-35.791,62.634-72.766,129.587-107.394,193.103
			c-0.091,0.276-1.99,3.629-2.126,3.87c-1.789,2.673-5.95,2.052-7.18-0.849c-19.403-30.431-40.108-62.747-59.78-92.918
			c-20.354-31.188-41.958-64.257-63.166-94.935C120.748,169.089,133.58,156.347,142.073,166.613z"></path><path fill="#FF7C00" d="M275.553,168.013h-38.108c-7.354,33.094-37.105,60.171-37.105,60.171l51.145,94.602l-1-65.306
			c-9.785-3.671-11.77-20.849-0.863-26.104c18.964-9.304,30.514,19.33,12.568,26.454l0.994,64.956l50.477-92.93
			C283.91,208.461,275.553,168.013,275.553,168.013z"></path></svg>