<svg xmlns="http://www.w3.org/2000/svg" enable-background="new 0 0 512 512" version="1" viewBox="0 0 512 512" id="adobe-capture"><path fill="#F23161" d="M93.867,12.8h324.267C469.867,12.8,512,54.933,512,106.667v311.467C512,469.867,469.867,512,418.134,512
			H93.867C42.134,512,0,469.867,0,418.133V106.667C0,54.933,42.134,12.8,93.867,12.8"></path><path fill="#2E0909" d="M98.133,34.133h315.733c42.667,0,76.8,34.133,76.8,76.8v302.933c0,42.667-34.133,76.8-76.8,76.8H98.133
			c-42.667,0-76.8-34.133-76.8-76.8V110.933C21.333,68.267,55.466,34.133,98.133,34.133"></path><path fill="#F36" d="M187.865,236.047c0,0,13.277-32,43.234-41.021c2.043,2.213,23.83,41.021,23.83,41.021H187.865z
		 M246.078,191.452l33.021,57.872l24-41.362C303.1,207.962,286.248,187.877,246.078,191.452z M314.163,220.175l-33.021,55.873h47.83
		C328.972,276.047,332.49,238.428,314.163,220.175z M323.185,291.366h-66.213l23.149,41.532
		C314.674,319.452,323.185,291.366,323.185,291.366z M265.993,335.962l-33.532-58.213l-23.489,41.872
		C232.461,342.43,265.993,335.962,265.993,335.962z M198.589,308.217l32.681-57.532h-47.66
		C178.334,287.111,198.589,308.217,198.589,308.217z"></path><path fill="#FFD9E2" d="M257.962,374.658c-1.692,0-3.38-0.043-5.071-0.129c-36.591-1.865-72.591-21.645-104.109-57.199
			c-23.623-26.648-36.287-52.356-36.815-53.438l-0.857-1.758l0.861-1.757c0.527-1.076,13.193-26.658,36.817-53.177
			c31.518-35.378,67.516-55.065,104.103-56.93c36.732-1.878,73.869,16.748,107.385,53.852
			c25.055,27.737,39.127,55.576,39.714,56.748l0.899,1.796l-0.902,1.793c-0.587,1.167-14.661,28.879-39.717,56.487
			C328.297,356.173,293.031,374.658,257.962,374.658z M120.06,262.143c3.273,6.237,15.352,28.08,34.842,50.029
			c20.939,23.581,55.007,52.155,98.397,54.368c43.282,2.208,78.838-26.5,101.047-50.971c20.766-22.879,34.024-46.352,37.551-52.912
			c-3.534-6.6-16.867-30.304-37.68-53.31c-22.186-24.522-57.699-53.285-100.917-51.088c-43.395,2.212-77.464,30.648-98.403,54.113
			C135.414,234.204,123.337,255.928,120.06,262.143z"></path></svg>