<svg xmlns="http://www.w3.org/2000/svg" enable-background="new 0 0 512 512" version="1" viewBox="0 0 512 512" id="adobe-air-sdk"><path fill="#AF0000" d="M93.867,12.801h324.267c51.733,0,93.867,42.133,93.867,93.867v311.467
			c0,51.733-42.133,93.867-93.867,93.867H93.867c-51.733,0-93.867-42.133-93.867-93.867V106.668
			C0.001,54.934,42.134,12.801,93.867,12.801"></path><path fill="#560000" d="M98.133,34.134h315.733c42.667,0,76.8,34.133,76.8,76.8v302.933c0,42.667-34.133,76.8-76.8,76.8H98.133
			c-42.667,0-76.8-34.133-76.8-76.8V110.934C21.333,68.268,55.466,34.134,98.133,34.134"></path><path fill="#FFF" d="M361.862,305.805c-0.677-0.909-1.743-2.197-2.949-3.428c-12.523-12.854-21.875-28.029-26.914-44.84
		c-0.231-0.785-0.463-1.561-0.669-2.346c-0.215-0.793-0.405-1.594-0.603-2.396c-4.031-17.067-3.544-34.902,0.9-52.283
		c0,0,0.677-2.867,0.851-4.056c3.734-21.965-9.789-43.559-31.73-49.449c-22.37-5.997-45.294,6.551-52.605,28.186
		c-0.306,0.801-0.917,2.85-0.925,2.875c-4.808,17.042-13.159,32.523-24.948,45.187c-13.407,14.076-30.449,24.08-49.557,29.202
		c-23.279,6.237-37.107,30.21-30.871,53.497c6.245,23.287,30.177,37.116,53.472,30.871c17.381-4.436,35.208-4.94,52.274-0.909
		c0.793,0.19,1.594,0.413,2.387,0.611c0.793,0.207,1.586,0.438,2.371,0.661c16.802,5.047,31.986,14.39,44.823,26.922
		c1.578,1.578,2.941,2.693,4.213,3.593c17.249,13.151,41.8,12.143,57.528-3.593c15.968-15.943,16.893-41.164,2.957-58.321
		 M256.099,313.678c-22.792-6.105-36.314-29.541-30.21-52.34c6.113-22.792,29.541-36.323,52.324-30.218
		c22.8,6.113,36.323,29.541,30.21,52.332c-6.105,22.792-29.532,36.331-52.324,30.218"></path></svg>