<svg xmlns="http://www.w3.org/2000/svg" enable-background="new 0 0 512 512" version="1" viewBox="0 0 512 512" id="adobe-analytics"><path fill="#9F7FFF" d="M93.867,12.8h324.267C469.867,12.8,512,54.933,512,106.667v311.467C512,469.867,469.867,512,418.134,512
			H93.867C42.134,512,0,469.867,0,418.133V106.667C0,54.933,42.134,12.8,93.867,12.8"></path><path fill="#130732" d="M98.133,34.133h315.733c42.667,0,76.8,34.133,76.8,76.8v302.933c0,42.667-34.133,76.8-76.8,76.8H98.133
			c-42.667,0-76.8-34.133-76.8-76.8V110.933C21.333,68.267,55.466,34.133,98.133,34.133"></path><path fill="#FFF" d="M164.999,290.945v56.18c-4.654-4.695-8.997-9.729-13-15.071v-41.108c0-3.59,2.91-6.5,6.5-6.5
				S164.999,287.355,164.999,290.945z M209.466,250.429c-3.59,0-6.5,2.91-6.5,6.5v117.274c4.215,2.008,8.551,3.798,13,5.357v-122.63
				C215.966,253.339,213.056,250.429,209.466,250.429z M259.332,242.547c-3.59,0-6.5,2.91-6.5,6.5v137.725
				c3.29,0.171,6.614,0.236,9.977,0.168c1.014-0.021,2.019-0.059,3.023-0.099V249.047
				C265.832,245.458,262.922,242.547,259.332,242.547z M310.184,208.473c-3.59,0-6.5,2.91-6.5,6.5v164.996
				c4.493-1.535,8.829-3.305,13-5.305V214.973C316.684,211.383,313.773,208.473,310.184,208.473z M366.361,234.792
				c0-3.59-2.91-6.5-6.5-6.5s-6.5,2.91-6.5,6.5v112.271c4.769-5.318,9.103-11.089,13-17.253V234.792z M382.26,197
				c1.27-1.07,1.43-2.96,0.37-4.23c-1.07-1.26-2.96-1.43-4.23-0.36l-16.09,13.53l-41.88-38.74l-84.13,59.94l-38-14.42l-42.77,48.43
				l-27.51,5.37c-1.62,0.31-2.69,1.89-2.37,3.52c0.28,1.43,1.54,2.42,2.94,2.42c0.19,0,0.39-0.02,0.58-0.05l29.51-5.76l41.37-46.85
				l37.12,14.09l82.76-58.97l42.19,39.02L382.26,197z"></path><path fill="#9F7FFF" d="M164.999,290.945v56.18c-4.654-4.695-8.997-9.729-13-15.071v-41.108c0-3.59,2.91-6.5,6.5-6.5
				S164.999,287.355,164.999,290.945z M209.466,250.429c-3.59,0-6.5,2.91-6.5,6.5v117.274c4.215,2.008,8.551,3.798,13,5.357v-122.63
				C215.966,253.339,213.056,250.429,209.466,250.429z M259.332,242.547c-3.59,0-6.5,2.91-6.5,6.5v137.725
				c3.29,0.171,6.614,0.236,9.977,0.168c1.014-0.021,2.019-0.059,3.023-0.099V249.047
				C265.832,245.458,262.922,242.547,259.332,242.547z M310.184,208.473c-3.59,0-6.5,2.91-6.5,6.5v164.996
				c4.493-1.535,8.829-3.305,13-5.305V214.973C316.684,211.383,313.773,208.473,310.184,208.473z M366.361,234.792
				c0-3.59-2.91-6.5-6.5-6.5s-6.5,2.91-6.5,6.5v112.271c4.769-5.318,9.103-11.089,13-17.253V234.792z M382.26,197
				c1.27-1.07,1.43-2.96,0.37-4.23c-1.07-1.26-2.96-1.43-4.23-0.36l-16.09,13.53l-41.88-38.74l-84.13,59.94l-38-14.42l-42.77,48.43
				l-27.51,5.37c-1.62,0.31-2.69,1.89-2.37,3.52c0.28,1.43,1.54,2.42,2.94,2.42c0.19,0,0.39-0.02,0.58-0.05l29.51-5.76l41.37-46.85
				l37.12,14.09l82.76-58.97l42.19,39.02L382.26,197z" opacity=".15"></path></svg>