<svg xmlns="http://www.w3.org/2000/svg" enable-background="new 0 0 512 512" version="1" viewBox="0 0 512 512" id="adobe-shockwave-player"><path fill="#D41818" d="M93.867,12.8h326.016C470.547,12.8,512,54.253,512,104.918v314.965C512,470.547,470.547,512,419.883,512
			H92.118C41.453,512,0,470.547,0,419.882V106.667C0,54.933,42.134,12.8,93.867,12.8"></path><path fill="#560000" d="M98.133,34.133h317.482c41.45,0,75.051,33.601,75.051,75.051v306.431c0,41.45-33.602,75.051-75.051,75.051
			H96.384c-41.45,0-75.051-33.601-75.051-75.051V110.933C21.333,68.267,55.466,34.133,98.133,34.133"></path><linearGradient id="a" x1="114.125" x2="397.875" y1="261.829" y2="261.829" gradientUnits="userSpaceOnUse"><stop offset="0" stop-color="#fff"></stop><stop offset="1" stop-color="#e8e8e8"></stop></linearGradient><path fill="url(#a)" d="M386.959,375.345h0.134c-0.021,0-0.046,0-0.067,0C387.001,375.345,386.98,375.345,386.959,375.345
		 M223.385,342.998h0.017H223.385z M223.402,342.998h0.117c-0.025,0-0.046,0-0.067,0
		C223.436,342.998,223.419,342.998,223.402,342.998 M355.246,339.643h0.017H355.246z M355.262,339.643h0.117
		c-0.021,0.004-0.042,0-0.063,0C355.3,339.643,355.283,339.643,355.262,339.643 M191.672,338.808h0.134c-0.021,0-0.046,0-0.067,0
		C191.714,338.808,191.693,338.808,191.672,338.808 M256.768,334.652h0.134c-0.025,0-0.046,0-0.067,0
		S256.789,334.652,256.768,334.652 M321.863,317.794h0.134c-0.021,0-0.046,0-0.067,0
		C321.909,317.794,321.884,317.794,321.863,317.794 M158.29,309.01h0.134c-0.021,0-0.046,0-0.067,0
		C158.336,309.01,158.315,309.01,158.29,309.01 M376.176,269.607v-0.033V269.607z M124.908,264.966h0.134c-0.021,0-0.046,0-0.067,0
		C124.954,264.966,124.933,264.966,124.908,264.966 M376.176,269.607v94.822c0,6.009,4.853,10.878,10.849,10.916
		c6-0.038,10.849-4.907,10.849-10.916v-94.822c0-6.009-4.849-10.878-10.849-10.916C381.029,258.728,376.176,263.598,376.176,269.607
		 M386.959,258.691c0.021,0,0.042,0,0.067,0c0.021,0,0.046,0,0.067,0H386.959z M344.463,233.938v-0.033V233.938z M245.985,228.914
		v-0.033V228.914z M212.603,237.259v94.839v0.017c0.008,6,4.861,10.858,10.849,10.883c5.996-0.029,10.845-4.899,10.845-10.899
		v-94.839v-0.017c-0.004-5.996-4.857-10.853-10.845-10.883C217.456,226.389,212.603,231.255,212.603,237.259 M223.385,226.36h0.013
		C223.394,226.36,223.39,226.36,223.385,226.36 M223.398,226.36c0.021,0,0.038,0,0.054,0s0.033,0,0.05,0H223.398z M223.502,226.36
		h0.017H223.502z M344.463,233.938v94.806v0.017c0.008,5.996,4.857,10.858,10.853,10.883c5.992-0.025,10.845-4.899,10.845-10.899
		v-94.806v-0.017c-0.008-5.996-4.857-10.853-10.845-10.883C349.316,223.063,344.463,227.933,344.463,233.938 M355.271,223.038
		c0.013,0,0.029,0,0.046,0c0.013,0,0.029,0,0.046,0h0.017H355.271z M355.246,223.038h0.025c-0.004,0-0.004,0-0.004,0
		C355.258,223.038,355.254,223.038,355.246,223.038 M180.89,233.066v94.822c0,6.013,4.853,10.883,10.849,10.92
		c6-0.038,10.849-4.907,10.849-10.92v-94.822c0-6.005-4.849-10.874-10.849-10.912C185.743,222.191,180.89,227.061,180.89,233.066
		 M191.672,222.154c0.021,0,0.042,0,0.067,0c0.021,0,0.046,0,0.067,0H191.672z M245.985,228.914v94.822
		c0,6.009,4.853,10.883,10.849,10.916c5.996-0.033,10.849-4.907,10.849-10.916v-94.822c0-6.026-5.658-10.916-11.684-10.916
		S245.985,222.888,245.985,228.914 M277.699,212.54v-0.033V212.54z M311.081,212.122v-0.033V212.122z M290.146,201.64h-1.531h-0.017
		c-6.021,0-10.899,4.878-10.899,10.899v95.106c0,6.03,4.886,10.916,10.916,10.916h1.531c6.034,0,10.92-4.886,10.92-10.916v-95.14
		c-0.017-6.005-4.891-10.866-10.899-10.866C290.163,201.64,290.154,201.64,290.146,201.64 M311.081,212.122v94.756
		c0,6.009,4.849,10.883,10.849,10.916c5.996-0.033,10.849-4.907,10.849-10.916v-94.789c-0.017-5.992-4.865-10.845-10.849-10.883
		C315.93,201.244,311.081,206.118,311.081,212.122 M321.863,201.206c0.021,0,0.046,0,0.067,0c0.021,0,0.046,0,0.067,0H321.863z
		 M147.507,203.28v94.822c0,6,4.853,10.874,10.849,10.908c5.996-0.033,10.849-4.907,10.849-10.908V203.28v-0.021
		c-0.008-6-4.865-10.858-10.849-10.883C152.36,192.402,147.507,197.271,147.507,203.28 M158.29,192.377h0.017
		C158.302,192.377,158.294,192.377,158.29,192.377 M158.307,192.377c0.017,0,0.033,0,0.05,0s0.029,0,0.046,0H158.307z
		 M158.403,192.377h0.021H158.403z M114.125,159.228v94.822c0,6.009,4.853,10.878,10.849,10.916
		c5.996-0.038,10.853-4.907,10.853-10.916v-94.822c0-6.009-4.857-10.878-10.853-10.916
		C118.978,148.35,114.125,153.219,114.125,159.228 M124.908,148.312c0.025,0,0.046,0,0.067,0c0.021,0,0.046,0,0.067,0H124.908z"></path></svg>