<svg xmlns="http://www.w3.org/2000/svg" enable-background="new 0 0 512 512" version="1" viewBox="0 0 512 512" id="adobe-photoshop-elements-pro"><path fill="#26C9FF" d="M93.696,13.323h325.861c50.641,0,92.074,41.433,92.074,92.074v314.815
			c0,50.641-41.433,92.074-92.074,92.074H91.948c-50.641,0-92.074-41.433-92.074-92.074V107.145
			C-0.126,55.436,41.987,13.323,93.696,13.323"></path><path fill="#16142F" d="M97.96,34.646h317.332c41.43,0,75.015,33.586,75.015,75.015v306.286c0,41.43-33.586,75.015-75.015,75.015
			H96.212c-41.43,0-75.015-33.586-75.015-75.015V111.409C21.196,68.763,55.313,34.646,97.96,34.646"></path><path fill="#AFF6FD" d="M252.584,423.331c-4.711-1.132-9.053-3.477-12.646-6.888L103.148,286.567
		c-11.196-10.631-11.657-28.389-1.026-39.585l129.876-136.791c5.131-5.405,12.085-8.488,19.581-8.683
		c7.494-0.194,14.6,2.524,20.004,7.656l136.792,129.876c5.405,5.131,8.488,12.085,8.682,19.58c0.194,7.496-2.525,14.6-7.656,20.004
		L279.523,415.417c-5.132,5.405-12.086,8.488-19.581,8.682C257.43,424.165,254.96,423.902,252.584,423.331z M257.008,110.036
		c-6.726-1.617-14.114,0.297-19.209,5.664L107.923,252.491c-7.593,7.998-7.264,20.682,0.733,28.275l136.791,129.876
		c3.855,3.659,8.927,5.602,14.289,5.46c5.359-0.138,10.326-2.338,13.987-6.193l129.876-136.792c3.66-3.855,5.599-8.929,5.46-14.289
		c-0.138-5.359-2.338-10.326-6.193-13.986L266.073,114.967C263.443,112.469,260.305,110.829,257.008,110.036z"></path><path fill="#2BC4FD" d="M254.727,243.537l-58.664,0.028c6.306-17.213,20.032-30.841,37.301-37.03L254.727,243.537z
		 M294.577,217.823c-10.838-9.29-24.909-14.915-40.303-14.915c-3.561,0-7.047,0.317-10.444,0.894l29.8,50.302L294.577,217.823z
		 M301.582,224.866l-30.88,51.945h44.39c0.753-3.86,1.158-7.845,1.158-11.926C316.251,249.627,310.726,235.665,301.582,224.866z
		 M273.038,323.963c18.816-5.971,33.726-20.682,39.992-39.365h-60.991L273.038,323.963z M212.618,310.775
		c11.004,9.995,25.619,16.087,41.656,16.087c3.596,0,7.115-0.324,10.544-0.911l-31.314-51.35L212.618,310.775z M193.796,251.357
		c-0.97,4.356-1.499,8.879-1.499,13.528c0,14.267,4.833,27.398,12.934,37.873l29.676-51.401H193.796z"></path></svg>