<svg xmlns="http://www.w3.org/2000/svg" enable-background="new 0 0 512 512" version="1" viewBox="0 0 512 512" id="adobe-photoshop-sketch"><path fill="#26C9FF" d="M93.867,12.8h326.015c50.665,0,92.118,41.453,92.118,92.118v314.964
								c0,50.665-41.453,92.117-92.117,92.117H92.118C41.453,511.999,0,470.546,0,419.881V106.667C0,54.933,42.134,12.8,93.867,12.8
								"></path><path fill="#001D26" d="M98.132,34.133h317.482c41.449,0,75.051,33.601,75.051,75.051v306.431
								c0,41.449-33.601,75.051-75.051,75.051H96.383c-41.449,0-75.051-33.601-75.051-75.051V110.933
								C21.332,68.267,55.466,34.133,98.132,34.133"></path><rect width="511.999" height="499.199" y="12.799" fill="none"></rect><path fill="#26C9FF" d="M203.922,322.245l42.213,69.787l45.957-88.51c0,0-27.076-15.903-44.085,11.064
				c-13.447,21.319-23.984,11.689-29.787,7.021C215.286,319.246,210.05,316.628,203.922,322.245z"></path><path fill="#D9F5FF" d="M208.117,297.047c1.189-3.27,3.702-5.874,6.115-8.409c24.396-25.625,52.401-47.809,82.931-65.69
					c0.933-0.546,1.985-1.279,1.998-2.36c0.013-1.1-1.07-1.87-2.078-2.309c-4.4-1.919-9.439-1.416-14.188-0.719
					c-19.472,2.857-38.548,8.395-56.522,16.409c-9.072,4.045-17.765,10.081-27.42,12.414c-3.509,0.848-7.588,1.254-10.383-1.031
					c-2.5-2.044-3.327-7.078-2.504-10.2c0.823-3.123,2.847-5.778,4.961-8.219c14.46-16.705,34.638-27.173,54.302-37.245
					c21.793-11.163,43.585-22.325,65.378-33.488c1.154-0.591,2.514-1.726,1.953-2.895c-0.384-0.8-1.432-0.962-2.317-1.013
					c-36.798-2.115-73.168,9.4-106.463,25.213c-5.266,2.501-10.986,5.185-16.692,3.987c-7.114-1.493-11.946-10.063-9.142-16.77
					c2.528-6.048,9.366-8.852,15.558-11.003c38.371-13.328,78.826-24.834,119.12-19.708c5.384,0.685,10.91,1.736,15.401,4.783
					c9.699,6.579,8.013,19.791-0.138,26.88c-3.774,3.282-8.387,5.414-12.931,7.503c-16.189,7.441-32.379,14.882-48.568,22.323
					c-24.735,11.368-50.332,21.946-68.981,41.777c-1.455-0.223,18.905-12.252,27.359-15.449
					c18.839-7.124,38.282-13.174,58.342-14.979c7.939-0.714,16.137-0.726,23.639,1.968c5.22,1.875,10.657,6.773,8.93,12.044
					c-0.666,2.034-2.295,3.596-3.981,4.913c-4.367,3.414-9.449,5.76-14.377,8.299c-32.514,16.752-59.369,40.852-88.122,63.459
					C208.231,298.37,207.925,297.574,208.117,297.047z"></path></svg>