<svg xmlns="http://www.w3.org/2000/svg" enable-background="new 0 0 512 512" version="1" viewBox="0 0 512 512" id="adobe-acrobat-pro"><path fill="#E82803" d="M93.867,12.801h324.267c51.733,0,93.867,42.133,93.867,93.867v311.467
			c0,51.733-42.133,93.867-93.867,93.867H93.867c-51.733,0-93.867-42.133-93.867-93.867V106.668
			C0.001,54.934,42.134,12.801,93.867,12.801"></path><path fill="#2B0C0A" d="M98.133,34.134h315.733c42.667,0,76.8,34.133,76.8,76.8v302.933c0,42.667-34.133,76.8-76.8,76.8H98.133
			c-42.667,0-76.8-34.133-76.8-76.8V110.934C21.333,68.268,55.466,34.134,98.133,34.134"></path><path fill="#FFF" d="M374.831,302.946c-0.175-1.754-1.754-22.097-37.88-21.22s-44.895,3.157-44.895,3.157
		s-27.007-27.358-36.828-48.578c0,0,11.925-34.899,11.399-56.82c-0.526-21.921-5.787-34.548-22.623-34.373
		c-16.836,0.175-19.291,14.907-17.076,36.836c1.987,19.673,12.166,42.783,12.166,42.783s-7.775,24.201-18.063,48.286
		s-17.303,36.711-17.303,36.711s-34.782,11.633-49.864,25.663c-15.082,14.03-21.211,24.809-13.27,35.6
		c6.839,9.295,30.807,11.399,52.202-16.66c21.395-28.059,31.041-45.597,31.041-45.597s32.653-8.944,42.808-11.399
		c10.155-2.455,22.431-4.384,22.431-4.384s29.813,29.989,58.574,28.936C376.41,320.834,375.007,304.7,374.831,302.946z
		 M148.076,366.256c-17.888-10.698,37.53-43.668,47.526-44.72C195.601,321.536,166.802,377.455,148.076,366.256z M233.131,173.873
		c0-17.362,5.612-22.097,9.996-22.097c4.384,0,9.295,2.104,9.47,17.186c0.175,15.082-9.47,44.544-9.47,44.544
		C239.795,209.999,233.131,191.235,233.131,173.873z M256.223,292.775c-17.945,4.384-26.95,8.944-26.95,8.944s0,0,7.366-16.485
		s14.907-38.933,14.907-38.933c10.172,18.94,30.339,41.212,30.339,41.212S274.168,288.391,256.223,292.775z M299.363,291.255
		c0,0,58.34-10.576,58.34,9.353C357.703,320.537,321.577,312.417,299.363,291.255z"></path></svg>