<svg xmlns="http://www.w3.org/2000/svg" enable-background="new 0 0 512 512" version="1" viewBox="0 0 512 512" id="adobe-adobe-fonts"><path fill="#EDEBEB" d="M93.867,12.8h326.016C470.547,12.8,512,54.253,512,104.918v314.965C512,470.547,470.547,512,419.883,512
			H92.118C41.453,512,0,470.547,0,419.882V106.667C0,54.933,42.134,12.8,93.867,12.8"></path><path fill="#2A292A" d="M98.005,34.038h317.482c41.45,0,75.051,33.601,75.051,75.051V415.52c0,41.45-33.602,75.051-75.051,75.051
			H96.256c-41.45,0-75.051-33.602-75.051-75.051V110.838C21.205,68.171,55.338,34.038,98.005,34.038"></path><path fill="#EDEBEB" d="M239.597,234.099c-3.692,0.161-7.973,0.446-11.074,0.21c-2.427-0.185-4.364-2.207-4.314-4.64
		c0.229-11.157,14.636-6.534,23.321-7.313c1.473,0.024,2.013-0.485,2.428-1.83c6.857-21.169,15.033-43.645,32.888-58.063
		c14.604-13.599,55.959-18.71,54.414,9.517c-0.011,0.194-0.031,0.395-0.061,0.587c-1.092,6.987-5.336,11.663-12.115,13.881
		c-6.643,2.424-8.056-5.227-9.731-9.848c-0.043-0.12-0.088-0.226-0.141-0.342c-2.369-5.191-6.775-19.524-13.746-12.736
		c-0.159,0.154-0.308,0.327-0.445,0.5c-12.914,16.409-17.282,38.026-23.276,57.633c-0.037,0.32-0.04,0.582,0.324,0.663
		c6.238,0.046,12.524-0.011,18.778-0.004c2.122,0.416,6.402-1.32,6.872,1.6c0.404,3.128-0.172,6.021-2.11,8.559
		c-3.152,4.771-25.727-1.325-27.892,3.117c-12.924,36.359-20.764,97.09-45.619,124.648c-0.115,0.128-0.234,0.249-0.36,0.366
		c-12.207,11.387-32.571,17.874-47.281,7.628c-0.141-0.098-0.28-0.202-0.413-0.311c-7.231-5.935-7.467-17.338,0.038-23.244
		c12.585-10.583,16.649,6.55,24.25,14.021c2.117,2.081,5.721,1.661,7.206-0.909c2.437-4.216,3.506-11.78,4.772-14.918
		c0.069-0.172,0.13-0.34,0.18-0.518c9.465-34.074,18.689-68.205,27.813-102.369C245.119,236.937,242.747,233.961,239.597,234.099z"></path></svg>